<svg width="120" height="120" viewBox="0 0 120 120" fill="none" xmlns="http://www.w3.org/2000/svg">
<circle cx="60" cy="60" r="60" fill="url(#paint0_linear)"/>
<path d="M72.8891 56.9739C72.8891 56.9739 75.0002 47.4014 77.2225 40.8342C77.3336 40.389 77.4447 40.0551 77.4447 39.7211C77.5558 38.942 77.6669 38.1628 77.6669 37.2724C77.6669 34.1557 74.0002 29.8147 71.5558 29.8147C68.5558 29.8147 64.778 32.3748 62.0002 34.7123C61.4447 35.1575 60.778 35.1575 60.2224 34.7123C57.5558 32.3748 54.0002 29.8147 50.6669 29.8147C48.2224 29.8147 44.5558 34.1557 44.5558 37.2724C44.5558 39.3872 44.8891 41.0568 45.5558 42.3925C47.5558 48.6258 49.1113 56.5287 49.2224 56.9739C45.3335 60.981 35.2224 95.5979 35.2224 95.5979C35.2224 95.5979 38.0002 99.2711 49.0002 101.052L49.1113 100.05L51.4447 100.384L51.3335 101.386C54.1113 101.72 57.3335 101.943 61.1113 101.943C64.8891 101.943 68.1113 101.72 70.8891 101.386L70.778 100.384L73.1113 100.05L73.2225 101.052C84.3336 99.3824 87.0002 95.5979 87.0002 95.5979C87.0002 95.5979 76.5558 60.6471 72.8891 56.9739Z" fill="white"/>
<path d="M61.1111 58.9775C52.8888 58.9775 49.1111 57.7531 48.8888 57.6418C48.1111 57.4192 48.3333 54.4138 49.1111 54.6365C49.1111 54.6365 53.3333 55.8608 61.1111 55.8608C68.8889 55.8608 72.7778 54.7478 72.7778 54.7478C73.5555 54.5251 73.8889 57.4192 73.1111 57.7531C73 57.7531 69.4444 58.9775 61.1111 58.9775ZM54.7777 70.2196C53.8888 70.2196 48.9999 100.941 48.9999 100.941L51.3333 101.163C51.3333 101.163 55.6666 70.2196 54.7777 70.2196ZM67.4444 70.2196C68.3333 70.2196 73.2222 100.941 73.2222 100.941L70.8889 101.163C70.8889 101.163 66.5555 70.2196 67.4444 70.2196ZM72 29.8147V23.804C72 22.9136 72.6666 22.2457 73.5555 22.2457C74.4444 22.2457 75.1111 22.9136 75.1111 23.804V31.9296C74.1111 30.8165 73 30.0373 72 29.8147ZM47.2222 31.8182V23.804C47.2222 22.9136 47.8888 22.2457 48.7777 22.2457C49.6666 22.2457 50.3333 22.9136 50.3333 23.804V29.8147C49.3333 29.926 48.1111 30.7052 47.2222 31.8182Z" fill="#E0E0E0"/>
<defs>
<linearGradient id="paint0_linear" x1="60" y1="120" x2="60" y2="-8.94069e-07" gradientUnits="userSpaceOnUse">
<stop stop-color="#170931"/>
<stop offset="1" stop-color="#33126F"/>
</linearGradient>
</defs>
</svg>
