<svg width="120" height="120" viewBox="0 0 120 120" fill="none" xmlns="http://www.w3.org/2000/svg">
<circle cx="60" cy="60" r="60" fill="url(#paint0_linear)"/>
<path d="M40 29.7034C51.05 29.7034 60 38.494 60 49.3382C60 38.494 68.95 29.7034 80 29.7034C91.05 29.7034 100 38.494 100 49.3382C100 65.6822 83.83 71.4474 61.96 97.4636C61.7192 97.7493 61.4191 97.979 61.0806 98.1365C60.742 98.294 60.3733 98.3756 60 98.3756C59.6267 98.3756 59.258 98.294 58.9194 98.1365C58.5809 97.979 58.2808 97.7493 58.04 97.4636C36.17 71.4474 20 65.6822 20 49.3382C20 38.494 28.95 29.7034 40 29.7034Z" fill="white"/>
<defs>
<linearGradient id="paint0_linear" x1="120" y1="60" x2="0" y2="60" gradientUnits="userSpaceOnUse">
<stop stop-color="#170830"/>
<stop offset="1" stop-color="#32116B"/>
</linearGradient>
</defs>
</svg>
