<svg width="589" height="457" viewBox="0 0 589 457" fill="none" xmlns="http://www.w3.org/2000/svg">
<path d="M140.48 60.7476C143.063 51.9165 154.224 49.0717 161.103 55.4908L305.6 190.328C312.832 197.076 309.936 208.885 300.456 211.301L101.689 261.968C92.2089 264.384 83.4941 255.535 86.2102 246.251L140.48 60.7476Z" stroke="#3B1283" stroke-opacity="0.3" stroke-width="5"/>
<path d="M293.611 110.351C298.5 102.472 309.964 102.472 314.854 110.351L417.734 276.157C422.901 284.484 416.912 295.248 407.113 295.248H201.351C191.552 295.248 185.563 284.484 190.73 276.157L293.611 110.351Z" stroke="#3B1283" stroke-opacity="0.7" stroke-width="5"/>
<path d="M472.813 238.384C481.298 233.723 491.669 239.42 491.669 248.74L491.669 378.397C491.669 387.895 480.939 394.01 472.452 389.348L354.419 324.52C345.932 319.858 346.134 307.961 354.78 303.212L472.813 238.384Z" stroke="black" stroke-width="5"/>
</svg>
