<svg width="1440" height="364" viewBox="0 0 1440 364" fill="none" xmlns="http://www.w3.org/2000/svg">
<path d="M256.916 16.0117L401.413 150.849C408.698 157.646 405.721 169.372 396.328 171.766L197.561 222.433C187.997 224.871 179.307 215.916 182.004 206.698L236.273 21.194C238.819 12.4927 249.937 9.49973 256.916 16.0117Z" stroke="#3B1283" stroke-opacity="0.3" stroke-width="5"/>
<path d="M410.666 70.8324L513.546 236.639C518.713 244.966 512.724 255.729 502.925 255.729H297.163C287.364 255.729 281.375 244.966 286.542 236.639L389.423 70.8324C394.312 62.953 405.777 62.953 410.666 70.8324Z" stroke="#3B1283" stroke-opacity="0.7" stroke-width="5"/>
<path d="M587.528 209.169V338.826C587.528 348.216 576.783 354.506 568.171 349.775L450.138 284.947C441.784 280.359 441.82 268.566 450.57 263.76L568.603 198.932C577.304 194.153 587.528 200.093 587.528 209.169Z" stroke="black" stroke-width="5"/>
</svg>
