<svg width="1440" height="480" viewBox="0 0 1440 480" fill="none" xmlns="http://www.w3.org/2000/svg">
<path d="M769.55 418.136L660.489 269.408C654.686 261.494 659.704 250.476 669.357 249.69L858.163 234.322C867.901 233.529 874.852 243.668 870.637 252.341L790.893 416.437C786.831 424.796 775.187 425.823 769.55 418.136Z" stroke="#3B1283" stroke-opacity="0.7" stroke-width="5"/>
<path d="M637.429 341.118L571.239 170.197C567.723 161.118 575.478 151.682 585.066 153.373L771.912 186.319C781.501 188.01 785.56 199.529 779.151 206.858L658.495 344.832C652.309 351.906 640.822 349.881 637.429 341.118Z" stroke="#3B1283" stroke-opacity="0.3" stroke-width="5"/>
<path d="M498.45 181.77L519.586 61.9022C521.238 52.5369 532.723 48.3155 540.236 54.4862L636.046 133.178C643.448 139.258 641.359 150.987 632.119 154.24L515.173 195.417C505.955 198.663 496.826 190.982 498.45 181.77Z" stroke="black" stroke-opacity="0.1" stroke-width="5"/>
</svg>
