<svg width="1440" height="435" viewBox="0 0 1440 435" fill="none" xmlns="http://www.w3.org/2000/svg">
<path d="M1226.94 393.673L1094.75 246.755C1088.08 239.348 1092.07 227.926 1101.64 226.36L1304.06 193.21C1313.8 191.615 1321.68 201.293 1318.19 210.241L1247.96 390.309C1244.67 398.755 1233.33 400.768 1226.94 393.673Z" stroke="#3B1283" stroke-opacity="0.3" stroke-width="5"/>
<path d="M1078.56 325.66L990.519 151.518C986.098 142.773 993.002 132.572 1002.76 133.426L1207.74 151.36C1217.5 152.214 1222.53 163.458 1216.66 171.303L1099.72 327.512C1094.16 334.935 1082.74 333.936 1078.56 325.66Z" stroke="#3B1283" stroke-opacity="0.7" stroke-width="5"/>
<path d="M914.425 172.436L925.725 43.2724C926.544 33.9178 937.796 28.5884 945.963 34.0513L1057.9 108.92C1065.82 114.219 1064.75 125.964 1055.62 129.989L932.385 184.283C923.301 188.285 913.634 181.477 914.425 172.436Z" stroke="black" stroke-width="5"/>
</svg>
