<svg width="120" height="120" viewBox="0 0 120 120" fill="none" xmlns="http://www.w3.org/2000/svg">
<circle cx="60" cy="60" r="60" fill="url(#paint0_linear)"/>
<path d="M80.1033 77.1776L94.3799 91.4763L89.6633 96.2013L75.39 81.8993C70.0791 86.1642 63.4733 88.484 56.6666 88.4743C40.1066 88.4743 26.6666 75.0104 26.6666 58.421C26.6666 41.8316 40.1066 28.3677 56.6666 28.3677C73.2266 28.3677 86.6666 41.8316 86.6666 58.421C86.6763 65.2397 84.3607 71.8573 80.1033 77.1776ZM73.4166 74.6998C77.647 70.3417 80.0095 64.4998 80 58.421C80 45.5047 69.5566 35.0462 56.6666 35.0462C43.7733 35.0462 33.3333 45.5047 33.3333 58.421C33.3333 71.3339 43.7733 81.7958 56.6666 81.7958C62.7347 81.8053 68.5662 79.4386 72.9166 75.2007L73.4166 74.6998ZM60.5933 45.6517C59.6104 46.0964 58.7499 46.7735 58.0856 47.6247C57.4213 48.4759 56.9731 49.4758 56.7794 50.5387C56.5857 51.6016 56.6524 52.6957 56.9736 53.7271C57.2948 54.7585 57.861 55.6964 58.6237 56.4604C59.3863 57.2244 60.3226 57.7917 61.3522 58.1135C62.3818 58.4352 63.4739 58.502 64.5349 58.308C65.5959 58.1139 66.5941 57.6649 67.4438 56.9995C68.2935 56.334 68.9693 55.472 69.4133 54.4873C70.2893 57.3378 70.1878 60.4 69.1249 63.1859C68.062 65.9719 66.0989 68.3213 63.5485 69.8599C60.998 71.3985 58.0069 72.0377 55.0517 71.6757C52.0965 71.3136 49.3473 69.9712 47.2421 67.8622C45.1369 65.7533 43.7968 62.9992 43.4354 60.0388C43.074 57.0783 43.7121 54.0819 45.248 51.5269C46.7838 48.9719 49.1291 47.0053 51.9101 45.9406C54.6911 44.8758 57.7479 44.7741 60.5933 45.6517Z" fill="white"/>
<defs>
<linearGradient id="paint0_linear" x1="60" y1="0" x2="60" y2="120" gradientUnits="userSpaceOnUse">
<stop stop-color="#14072A"/>
<stop offset="1" stop-color="#361275"/>
</linearGradient>
</defs>
</svg>
