<svg width="120" height="120" viewBox="0 0 120 120" fill="none" xmlns="http://www.w3.org/2000/svg">
<circle cx="60" cy="60" r="60" fill="url(#paint0_linear)"/>
<path d="M60 81.7958C73.3334 81.7958 76.6667 68.4387 76.6667 68.4387L73.2 73.7815L70.8 76.5865L68.8 78.1894L66.4 79.3915L63.6 80.5936L60 80.9943L56.8 80.5936L53.2 79.3915L50.8 78.1894L48.8 76.1858L46.8 73.7815L43.3334 68.4387C43.3334 68.4387 46.6667 81.7958 60 81.7958Z" fill="white"/>
<path d="M60 95.1527C78.38 95.1527 93.3333 80.1728 93.3333 61.7602C93.3333 43.3476 78.38 28.3677 60 28.3677C41.62 28.3677 26.6666 43.3476 26.6666 61.7602C26.6666 80.1728 41.62 95.1527 60 95.1527ZM60 30.1041C74.7033 30.1041 90 47.0308 90 61.7602C90 76.4896 74.7033 93.817 60 93.817C45.2966 93.817 30.4 76.4896 30.4 61.7602C30.4 47.0308 45.2966 30.1041 60 30.1041Z" fill="white"/>
<path d="M48.4501 63.8773L55.2834 56.9216C55.7482 56.4561 56.1158 55.9026 56.3647 55.2933C56.6137 54.684 56.739 54.0311 56.7334 53.3727C56.7278 52.7144 56.5914 52.0638 56.3322 51.4588C56.0729 50.8538 55.696 50.3066 55.2234 49.8491C54.313 48.9429 53.0878 48.425 51.8046 48.4038C49.2 49.3382 49.3898 51.2675 48.4501 52.1431C47.4964 51.2787 47.6 48.454 44.8493 48.454C43.5638 48.4963 42.3451 49.0373 41.4501 49.9626C39.4968 51.9662 39.5201 55.0717 41.5134 57.0318L48.4501 63.8773ZM71.7834 63.8773L78.6168 56.9216C79.0815 56.4561 79.4491 55.9026 79.698 55.2933C79.947 54.684 80.0723 54.0311 80.0667 53.3727C80.0612 52.7144 79.9248 52.0638 79.6655 51.4588C79.4063 50.8538 79.0294 50.3066 78.5568 49.8491C77.6464 48.9429 76.4211 48.425 75.1379 48.4038C72.8 48.454 72.7231 51.2675 71.7834 52.1431C70.83 51.2773 70.4 48.454 68.1816 48.4507C66.8953 48.4925 65.6756 49.0334 64.7801 49.9593C62.8268 51.9628 62.8501 55.0683 64.8434 57.0285L71.7834 63.8773Z" fill="white"/>
<defs>
<linearGradient id="paint0_linear" x1="0" y1="60" x2="120" y2="60" gradientUnits="userSpaceOnUse">
<stop stop-color="#100522"/>
<stop offset="1" stop-color="#3B1381"/>
</linearGradient>
</defs>
</svg>
