<svg width="180" height="180" viewBox="0 0 180 180" fill="none" xmlns="http://www.w3.org/2000/svg">
<path d="M90 0C41.211 0 0 41.211 0 90C0 138.789 41.211 180 90 180C138.789 180 180 138.789 180 90C180 41.211 138.789 0 90 0ZM90 45C105.543 45 117 56.448 117 72C117 87.552 105.543 99 90 99C74.466 99 63 87.552 63 72C63 56.448 74.466 45 90 45ZM44.046 132.948C52.119 121.068 65.583 113.148 81 113.148H99C114.426 113.148 127.881 121.068 135.954 132.948C124.452 145.26 108.135 153 90 153C71.865 153 55.548 145.26 44.046 132.948Z" fill="#0B5285"/>
</svg>
