<svg width="351" height="273" viewBox="0 0 351 273" fill="none" xmlns="http://www.w3.org/2000/svg">
<g clip-path="url(#clip0)">
<path d="M259.708 155.552L190.094 68.5611C186.933 71.4519 183.039 73.4184 178.836 74.2458C165.731 76.8269 152.932 67.8773 150.249 54.2564C148.353 44.6279 152.024 35.2479 158.965 29.6616L135.229 0L0 115.574L124.48 271.126L259.708 155.552Z" fill="#F2F2F2"/>
<path d="M29.6841 271.919H350.54" stroke="#3F3D56" stroke-width="2" stroke-miterlimit="10"/>
<path d="M223.815 25.8966C226.759 25.8966 229.146 23.5096 229.146 20.565C229.146 17.6205 226.759 15.2335 223.815 15.2335C220.87 15.2335 218.483 17.6205 218.483 20.565C218.483 23.5096 220.87 25.8966 223.815 25.8966Z" stroke="#3F3D56" stroke-width="2" stroke-miterlimit="10"/>
<path d="M294.273 180.904C297.217 180.904 299.604 178.517 299.604 175.573C299.604 172.628 297.217 170.241 294.273 170.241C291.329 170.241 288.942 172.628 288.942 175.573C288.942 178.517 291.329 180.904 294.273 180.904Z" stroke="#3F3D56" stroke-width="2" stroke-miterlimit="10"/>
<path d="M61.6765 39.2656C64.6211 39.2656 67.0081 36.8786 67.0081 33.9341C67.0081 30.9895 64.6211 28.6025 61.6765 28.6025C58.732 28.6025 56.345 30.9895 56.345 33.9341C56.345 36.8786 58.732 39.2656 61.6765 39.2656Z" stroke="#3F3D56" stroke-width="2" stroke-miterlimit="10"/>
<path d="M173.21 70.1129C184.049 70.1129 192.836 61.3263 192.836 50.4875C192.836 39.6487 184.049 30.8622 173.21 30.8622C162.372 30.8622 153.585 39.6487 153.585 50.4875C153.585 61.3263 162.372 70.1129 173.21 70.1129Z" fill="#F2F2F2"/>
<path d="M56.6861 39.5214H143.626C147.822 39.5214 151.892 40.9487 155.169 43.5688C158.445 46.1889 160.733 49.8458 161.656 53.9384L205.585 248.788C206.064 250.914 206.072 253.118 205.609 255.247C205.147 257.376 204.224 259.378 202.905 261.112C201.587 262.847 199.905 264.272 197.978 265.288C196.05 266.303 193.924 266.885 191.748 266.993L102.373 271.396C97.5873 271.632 92.8793 270.118 89.1274 267.138C85.3756 264.158 82.8363 259.914 81.9834 255.199L57.0641 117.438L55.2102 117.968L50.4421 91.8567L52.3505 91.3796L45.3946 52.9255C45.0967 51.2785 45.1658 49.586 45.597 47.9687C46.0281 46.3514 46.8108 44.8491 47.8892 43.569C48.9675 42.2889 50.315 41.2624 51.8356 40.5628C53.3561 39.8631 55.0123 39.5075 56.6861 39.5214Z" fill="#3F3D56"/>
<path d="M132.181 43.7219H142.329C145.244 43.7219 148.07 44.7187 150.34 46.5467C152.61 48.3748 154.187 50.9241 154.808 53.7716L196.974 247.032C197.217 248.145 197.216 249.297 196.973 250.41C196.73 251.522 196.249 252.569 195.565 253.479C194.88 254.389 194.006 255.14 193.004 255.682C192.003 256.223 190.896 256.542 189.759 256.616L100.673 262.455C98.16 262.62 95.674 261.853 93.6898 260.302C91.7056 258.751 90.3621 256.523 89.9156 254.044L53.9352 54.2907C53.7023 52.9978 53.756 51.6696 54.0925 50.3997C54.429 49.1299 55.0401 47.9493 55.8827 46.9414C56.7252 45.9335 57.7788 45.1228 58.9689 44.5665C60.159 44.0102 61.4566 43.7219 62.7703 43.7219H72.3978C73.3296 43.7219 74.2354 44.0291 74.975 44.5959C75.7146 45.1627 76.2467 45.9575 76.489 46.8573C76.7028 47.6516 77.1726 48.3533 77.8255 48.8537C78.4784 49.3541 79.2781 49.6253 80.1007 49.6253H125.806C127.417 49.6253 128.968 49.0172 130.15 47.9228C131.332 46.8283 132.057 45.328 132.181 43.7219L132.181 43.7219Z" fill="white"/>
<path fill-rule="evenodd" clip-rule="evenodd" d="M107.525 105.35C105.09 103.609 103.14 101.217 102.596 98.1287C101.029 89.2293 113.684 88.1178 117.153 91.9417C120.622 95.7656 123.133 107.033 120.268 108.585C119.126 109.204 116.334 109.082 113.289 108.147L117.881 119.485L108.072 121.931L107.525 105.35Z" fill="#B28B67"/>
<path fill-rule="evenodd" clip-rule="evenodd" d="M119.973 84.7387C119.591 84.0754 118.893 83.6003 118.111 83.6025C117.922 83.603 117.733 83.6312 117.551 83.6844C117.486 83.7035 117.472 83.7271 117.43 83.6887C117.398 83.6602 117.377 83.5769 117.358 83.5391C117.297 83.4215 117.23 83.3073 117.155 83.1985C116.899 82.8272 116.549 82.5292 116.161 82.3016C115.435 81.8758 114.548 81.6781 113.71 81.8111C113.252 81.8839 112.825 82.0678 112.437 82.3194C112.237 82.4497 112.047 82.5968 111.866 82.7525C111.811 82.7993 111.647 83.0031 111.582 83.0088C111.51 83.0151 111.328 82.8778 111.261 82.8487C110.433 82.4886 109.522 82.4929 108.657 82.7151C107.681 82.9662 106.752 83.2498 106.085 84.049C105.944 84.2182 105.814 84.3974 105.694 84.5818C105.631 84.679 105.571 84.7783 105.515 84.88C105.482 84.9414 105.45 85.0036 105.42 85.0668C105.369 85.174 105.388 85.2003 105.27 85.1637C104.818 85.0231 104.336 85.025 103.892 85.1955C103.628 85.2967 103.384 85.4444 103.159 85.6145C103.083 85.6724 102.921 85.8677 102.831 85.8918C102.741 85.9158 102.512 85.8292 102.41 85.818C101.86 85.7577 101.307 85.8472 100.799 86.0649C100.276 86.2895 99.7938 86.6408 99.4066 87.0568C99.2203 87.257 99.0663 87.4656 98.9641 87.7196C98.92 87.8293 98.8837 87.9427 98.8289 88.0479C98.7969 88.1094 98.7214 88.1832 98.7133 88.253C98.7181 88.2112 98.0484 88.128 97.987 88.1273C97.6598 88.1237 97.3511 88.2179 97.075 88.3919C96.5558 88.7191 96.1735 89.2578 95.8804 89.7854C95.7299 90.0564 95.6108 90.3442 95.5228 90.6411C95.4806 90.7833 95.4456 90.9275 95.4169 91.073C95.403 91.1435 95.403 91.2274 95.3782 91.294C95.3461 91.3797 95.3126 91.3896 95.2294 91.4442C94.807 91.7218 94.4534 92.1015 94.2246 92.5525C93.9931 93.0088 93.8974 93.5235 93.9303 94.0322C93.9323 94.0622 93.9588 94.1817 93.9459 94.2014C93.9282 94.2285 93.8327 94.2423 93.7986 94.2552C93.6802 94.2999 93.5644 94.3514 93.452 94.4095C93.2448 94.5165 93.0495 94.6467 92.8718 94.7975C92.1788 95.3857 91.7964 96.2598 91.7254 97.1538C91.651 98.092 91.9035 99.0827 92.4623 99.8458C92.5525 99.9691 92.6524 100.086 92.7622 100.192C92.8296 100.257 92.8451 100.254 92.8341 100.343C92.8218 100.442 92.7801 100.545 92.7608 100.644C92.6977 100.965 92.6796 101.294 92.6978 101.621C92.7277 102.157 92.8133 102.707 93.0382 103.198C93.1426 103.426 93.2789 103.641 93.4511 103.824C93.5388 103.918 93.6355 104.003 93.7394 104.079C93.7933 104.118 93.8493 104.154 93.9068 104.188C93.9397 104.207 93.98 104.221 94.0097 104.245C94.0821 104.301 94.0792 104.241 94.0767 104.351C94.0732 104.506 94.0191 104.671 93.9993 104.825C93.9789 104.984 93.9645 105.144 93.9547 105.304C93.935 105.629 93.9312 105.955 93.9588 106.279C94.0117 106.901 94.1875 107.534 94.6072 108.012C94.7867 108.217 95.0116 108.38 95.262 108.487C95.3845 108.54 95.5129 108.58 95.6438 108.606C95.711 108.62 95.7909 108.613 95.8328 108.664C95.8779 108.719 95.8651 108.854 95.8725 108.927C95.9372 109.557 96.0528 110.206 96.3822 110.757C96.6856 111.265 97.1731 111.658 97.7292 111.86C98.8079 112.253 100.044 111.907 100.89 111.167C101.111 110.974 101.307 110.753 101.471 110.511C102.189 111.1 103.289 110.801 104.023 110.399C104.938 109.899 105.554 109.022 105.783 108.015C106.59 108.614 107.827 108.046 108.053 107.122C108.108 106.896 108.115 106.66 108.09 106.429C108.077 106.308 108.037 106.192 108.021 106.073C107.999 105.92 108.062 105.752 108.083 105.594C108.125 105.287 108.122 104.982 108.049 104.68C108.012 104.522 107.954 104.374 107.9 104.222C107.851 104.085 107.858 103.944 107.845 103.8C107.605 103.904 107.282 103.913 107.027 103.899C106.777 103.885 106.513 103.751 106.306 103.621C105.827 103.316 105.464 102.851 105.175 102.37C104.541 101.315 104.343 99.9087 105.335 98.9953C105.798 98.5697 107.402 98.1708 108.075 98.1562C108.784 98.1409 109.912 99.4306 109.984 99.5603C110.029 99.6406 110.044 99.75 110.137 99.7876C110.342 99.8703 110.574 99.5801 110.676 99.4402C110.85 99.1987 110.946 98.9114 111.02 98.6261C111.181 98.0043 111.275 97.3573 111.295 96.7156C111.31 96.2209 111.275 95.7235 111.334 95.2306C111.392 94.7401 111.56 94.2728 111.913 93.9151C112.297 93.5259 112.781 93.251 113.235 92.9534C113.685 92.6584 114.117 92.3274 114.408 91.8672C114.472 91.766 114.533 91.6603 114.577 91.549C114.612 91.4611 114.629 91.3051 114.698 91.2376C114.807 91.1325 115.039 91.2777 115.166 91.3199C115.791 91.5281 116.36 91.8939 116.853 92.3256C117.344 92.7549 117.765 93.1807 118.15 93.7006C118.436 94.0862 118.685 94.6093 119.087 94.8834C119.266 95.0059 120.333 94.8412 120.636 94.6196C120.939 94.398 121.229 93.9468 121.286 93.695C121.345 93.4372 121.31 93.1789 121.198 92.9407C121.132 92.8005 121.039 92.6777 120.97 92.541C120.912 92.4263 120.859 92.3175 120.772 92.2209C120.607 92.0377 120.377 91.9338 120.13 91.9279C120.316 91.6462 120.449 91.3312 120.513 91.0002C120.579 90.6563 120.607 90.2513 120.557 89.9046C120.517 89.6229 120.403 89.3491 120.194 89.1505C119.974 88.9422 119.654 88.8504 119.374 88.7562C119.671 88.3751 119.9 87.9449 120.063 87.491C120.379 86.6084 120.454 85.5767 119.973 84.7387Z" fill="#191847"/>
<path fill-rule="evenodd" clip-rule="evenodd" d="M113.266 156.677L145.882 203.775L169.211 238.666L177.065 236.707L135.612 151.105L113.266 156.677Z" fill="#1F28CF"/>
<path fill-rule="evenodd" clip-rule="evenodd" d="M108.41 157.887C112.644 175.782 118.788 199.764 118.567 201.001C118.42 201.825 110.206 212.845 93.9254 234.063L99.6899 239.937C119.924 218.377 130.399 206.407 131.116 204.028C132.19 200.46 134.35 169.549 134.927 151.276L108.41 157.887Z" fill="#2B44FF"/>
<path fill-rule="evenodd" clip-rule="evenodd" d="M87.9584 240.47L93.4984 233.562L100.654 238.761C102.315 243.611 105.342 248.761 109.736 254.209L108.745 255.573L95.796 246.164L91.8612 242.264L91.3661 242.946L87.9584 240.47Z" fill="#191847"/>
<path fill-rule="evenodd" clip-rule="evenodd" d="M170.317 246.204L168.586 237.519L177.169 235.379C181.951 237.226 187.842 238.217 194.84 238.353L195.248 239.988L179.717 243.86L174.2 244.367L174.404 245.185L170.317 246.204Z" fill="#191847"/>
<path fill-rule="evenodd" clip-rule="evenodd" d="M286.783 102.971C288.76 100.431 290.098 97.3175 289.874 93.8291C289.23 83.778 276.451 85.9891 273.965 91.062C271.479 96.1349 271.775 109.003 274.987 109.91C276.269 110.271 278.998 109.385 281.776 107.552L280.032 121.058H290.327L286.783 102.971Z" fill="#B28B67"/>
<path fill-rule="evenodd" clip-rule="evenodd" d="M269.404 84.0293C269.618 83.2088 270.191 82.5063 270.964 82.2979C271.151 82.2474 271.345 82.227 271.538 82.2355C271.607 82.2385 271.626 82.2603 271.658 82.2074C271.682 82.1681 271.683 82.0722 271.693 82.026C271.724 81.8826 271.762 81.7409 271.809 81.6028C271.971 81.1321 272.243 80.7154 272.57 80.3644C273.183 79.7078 274.011 79.2547 274.871 79.1727C275.342 79.1279 275.809 79.2116 276.254 79.3793C276.485 79.4661 276.708 79.5741 276.926 79.6936C276.991 79.7296 277.204 79.9057 277.269 79.8943C277.342 79.8817 277.488 79.6842 277.547 79.6346C278.277 79.0215 279.178 78.7804 280.087 78.7876C281.113 78.7961 282.101 78.8522 282.957 79.5371C283.138 79.6821 283.311 79.8408 283.475 80.008C283.562 80.096 283.645 80.1873 283.725 80.2824C283.774 80.3397 283.82 80.3984 283.866 80.4586C283.942 80.5609 283.93 80.5945 284.037 80.5231C284.449 80.2492 284.927 80.1211 285.407 80.1857C285.693 80.2242 285.97 80.318 286.234 80.4415C286.324 80.4835 286.532 80.6512 286.627 80.6529C286.722 80.6545 286.927 80.499 287.025 80.4595C287.553 80.246 288.122 80.1934 288.678 80.2921C289.25 80.3938 289.813 80.644 290.298 80.9897C290.531 81.1559 290.735 81.3402 290.898 81.5874C290.969 81.6942 291.033 81.8071 291.113 81.9061C291.16 81.964 291.253 82.0235 291.278 82.0968C291.263 82.0529 291.904 81.7822 291.964 81.7649C292.287 81.6727 292.615 81.6914 292.931 81.8052C293.524 82.0191 294.035 82.4988 294.455 82.9906C294.67 83.2432 294.859 83.5224 295.019 83.8199C295.096 83.9624 295.166 84.109 295.23 84.2586C295.261 84.3312 295.282 84.4219 295.323 84.4872C295.375 84.5714 295.411 84.573 295.507 84.6097C295.992 84.796 296.435 85.1115 296.773 85.5377C297.114 85.9689 297.335 86.5 297.428 87.0592C297.433 87.0921 297.437 87.2287 297.454 87.2465C297.478 87.271 297.576 87.2602 297.613 87.2649C297.741 87.2814 297.868 87.3058 297.994 87.3383C298.225 87.3982 298.45 87.4864 298.662 87.6017C299.492 88.0511 300.085 88.8937 300.376 89.8418C300.68 90.8367 300.675 91.9766 300.311 92.953C300.252 93.1107 300.182 93.2638 300.1 93.4086C300.049 93.4975 300.033 93.4977 300.066 93.591C300.102 93.6948 300.169 93.7956 300.213 93.897C300.354 94.2278 300.453 94.5787 300.515 94.9371C300.618 95.5251 300.669 96.1429 300.568 96.7353C300.521 97.0104 300.439 97.2792 300.314 97.5242C300.25 97.6492 300.176 97.7676 300.092 97.8772C300.048 97.9341 300.002 97.9885 299.953 98.0405C299.926 98.0703 299.889 98.0963 299.866 98.1295C299.808 98.2105 299.796 98.1439 299.826 98.2629C299.867 98.4291 299.961 98.5932 300.019 98.755C300.078 98.9217 300.132 99.0908 300.181 99.2615C300.28 99.6071 300.364 99.959 300.417 100.317C300.518 101.004 300.5 101.736 300.203 102.367C300.076 102.637 299.894 102.874 299.673 103.058C299.565 103.148 299.448 103.225 299.325 103.289C299.262 103.322 299.182 103.336 299.153 103.403C299.122 103.475 299.168 103.617 299.178 103.698C299.27 104.397 299.315 105.131 299.126 105.816C298.951 106.447 298.566 107.004 298.066 107.372C297.097 108.088 295.791 108.048 294.772 107.475C294.507 107.325 294.258 107.14 294.037 106.921C293.472 107.753 292.311 107.727 291.487 107.49C290.46 107.195 289.635 106.412 289.16 105.385C288.511 106.25 287.148 105.97 286.698 105.031C286.587 104.801 286.522 104.547 286.49 104.291C286.473 104.156 286.484 104.02 286.471 103.887C286.455 103.716 286.351 103.551 286.291 103.386C286.175 103.065 286.102 102.734 286.099 102.388C286.098 102.207 286.119 102.031 286.134 101.852C286.148 101.691 286.108 101.54 286.084 101.381C286.348 101.429 286.669 101.351 286.917 101.267C287.161 101.185 287.389 100.969 287.561 100.771C287.96 100.313 288.204 99.712 288.371 99.1138C288.737 97.801 288.587 96.2259 287.381 95.5054C286.819 95.1697 285.136 95.1708 284.466 95.3367C283.763 95.5111 282.965 97.211 282.926 97.3707C282.902 97.4696 282.914 97.592 282.831 97.6579C282.648 97.8028 282.348 97.5514 282.213 97.4273C281.981 97.2131 281.816 96.9282 281.672 96.6394C281.36 96.0101 281.108 95.3354 280.93 94.6465C280.793 94.1155 280.705 93.5678 280.526 93.0503C280.348 92.5353 280.066 92.075 279.629 91.7833C279.154 91.466 278.608 91.2988 278.086 91.0994C277.569 90.9017 277.06 90.6602 276.659 90.2408C276.571 90.1486 276.485 90.0506 276.414 89.942C276.358 89.8563 276.303 89.6922 276.217 89.6379C276.084 89.5533 275.891 89.7732 275.776 89.853C275.209 90.2469 274.737 90.7962 274.356 91.3963C273.977 91.9931 273.666 92.5674 273.413 93.2339C273.226 93.7281 273.109 94.3611 272.779 94.7662C272.632 94.9471 271.538 95.0565 271.183 94.8986C270.829 94.7407 270.432 94.3307 270.313 94.0737C270.191 93.8107 270.162 93.5218 270.214 93.2339C270.244 93.0645 270.307 92.9062 270.341 92.7399C270.37 92.6001 270.396 92.468 270.458 92.34C270.576 92.0973 270.777 91.923 271.02 91.85C270.767 91.5952 270.558 91.2903 270.413 90.9495C270.263 90.5954 270.135 90.1648 270.099 89.7761C270.07 89.4605 270.115 89.1334 270.273 88.8622C270.439 88.5776 270.732 88.3919 270.986 88.2144C270.598 87.8824 270.266 87.4785 269.993 87.0314C269.463 86.1619 269.135 85.0659 269.404 84.0293Z" fill="#191847"/>
<path fill-rule="evenodd" clip-rule="evenodd" d="M293.755 160.052L273.129 219.806L258.673 263.848H250.429L270.302 160.052L293.755 160.052Z" fill="#1F28CF"/>
<path fill-rule="evenodd" clip-rule="evenodd" d="M298.852 160.052C299.076 180.555 298.914 208.159 299.437 209.437C299.785 210.289 310.617 219.996 331.932 238.56L327.683 246.471C302.377 228.602 289.077 218.478 287.783 216.097C285.842 212.527 276.092 179.667 271.019 160.052H298.852Z" fill="#2B44FF"/>
<path fill-rule="evenodd" clip-rule="evenodd" d="M339.407 243.883L332.231 237.903L326.441 245.458C325.995 251.154 324.273 257.542 321.273 264.622L322.588 265.829L333.066 252.158L335.993 246.877L336.65 247.48L339.407 243.883Z" fill="#191847"/>
<path fill-rule="evenodd" clip-rule="evenodd" d="M259.437 272.304L259.008 262.44H250C245.729 265.728 240.152 268.39 233.27 270.425V272.304H249.571L255.148 271.364V272.304H259.437Z" fill="#191847"/>
<path fill-rule="evenodd" clip-rule="evenodd" d="M256.865 141.406L239.928 138.876C236.54 136.813 233.423 135.416 230.578 134.686C229.777 134.66 228.503 134.979 230.401 136.711C232.298 138.443 234.224 140.36 233.886 141.284C233.548 142.209 231.783 141.865 231.49 143.286C231.296 144.234 234.16 144.388 240.083 143.749L253.826 149.714L256.865 141.406ZM310.069 145.698L300.676 145.737C310.976 171.115 316.346 184.402 316.788 185.599C317.78 188.292 315.68 192.394 314.781 194.599C317.707 196.032 317.395 190.724 321.086 192.604C324.454 194.32 327.017 197.429 330.909 194.799C331.387 194.476 331.911 193.259 330.644 192.308C327.488 189.938 322.94 185.791 322.325 184.426C321.487 182.565 317.402 169.655 310.069 145.698Z" fill="#997659"/>
<path fill-rule="evenodd" clip-rule="evenodd" d="M284.341 113.077L276.986 113.613C275.175 131.555 265.309 142.888 243.219 139.051L240.285 162.156C260.931 165.078 279.037 156.028 282.748 131.524C283.708 125.181 284.467 118.58 284.341 113.077Z" fill="#CCA800"/>
<path fill-rule="evenodd" clip-rule="evenodd" d="M287.968 110.739L276.825 113.533C276.825 134.518 270.72 147.906 267.589 163.334H297.683C298.107 168.666 298.367 174.145 298.503 179.773H321.037C315.93 150.026 305.153 127.012 288.704 110.732H287.974L287.968 110.739Z" fill="#FFD200"/>
<path fill-rule="evenodd" clip-rule="evenodd" d="M292.935 133.393C293.711 146.469 293.254 156.448 291.567 163.33H297.683C296.843 152.769 295.362 142.79 292.935 133.393L292.935 133.393Z" fill="black" fill-opacity="0.1"/>
<path fill-rule="evenodd" clip-rule="evenodd" d="M153.019 146.29L168.014 155.049C171.896 155.671 175.184 156.607 177.876 157.857C178.532 158.339 179.371 159.367 176.869 159.437C174.368 159.507 171.74 159.693 171.486 160.576C171.233 161.458 172.841 162.312 172.269 163.527C171.887 164.337 169.507 162.657 165.127 158.487L150.741 154.22L153.019 146.29ZM91.3859 150.346L100.718 148.057C99.3529 172.833 98.5869 185.818 98.4195 187.012C98.0431 189.699 101.055 192.898 102.445 194.674C99.865 196.697 98.9747 191.808 95.7366 194.426C92.781 196.815 90.9404 200.267 86.4834 198.847C85.9354 198.672 85.1399 197.699 86.1823 196.523C88.7794 193.594 92.3564 188.709 92.6578 187.319C93.0689 185.424 92.6449 173.1 91.3859 150.346Z" fill="#B28B67"/>
<path fill-rule="evenodd" clip-rule="evenodd" d="M113.201 116.819L116.725 115.269C127.637 134.324 160.919 140.869 164.66 148.077C166.031 150.72 164.363 152.645 165.621 153.241L161.709 157.937C160.663 157.194 159.365 159.354 155.452 159.045C151.539 158.736 119.254 141.094 113.201 116.819Z" fill="#2F0E68"/>
<path fill-rule="evenodd" clip-rule="evenodd" d="M120.073 117.998C126.416 145.246 143.832 148.258 143.052 160.018C142.408 169.729 117.194 186.282 110.216 178.66C107.392 175.575 105.438 171.479 104.169 166.812C103.846 170.721 103.653 174.065 103.591 176.843C103.483 181.636 98.9076 183.535 99.3387 185.264L92.6448 185.096C92.484 182.642 89.2464 182.234 88.7299 176.79C86.4152 152.396 91.6963 132.979 104.573 118.538L104.162 116.203C103.993 115.248 104.631 114.338 105.585 114.169L117.253 112.112C118.207 111.944 119.118 112.581 119.286 113.536L120.073 117.998Z" fill="#3B1283"/>
</g>
<defs>
<clipPath id="clip0">
<rect width="350.54" height="272.28" fill="white"/>
</clipPath>
</defs>
</svg>
