<svg width="1440" height="320" viewBox="0 0 1440 320" fill="none" xmlns="http://www.w3.org/2000/svg">
<path d="M374.408 239.773L244.837 179.345C236.17 175.304 235.142 163.161 242.99 157.543L361.403 72.7672C369.251 67.1485 380.053 72.2936 380.8 82.0056L391.958 227.209C392.697 236.832 382.995 243.778 374.408 239.773Z" stroke="#EDC00D" stroke-opacity="0.3" stroke-width="5"/>
<path d="M967.766 152.571L1011.9 109.955C1018.78 103.313 1030.48 106.704 1032.92 116.044L1048.67 176.519C1051.1 185.86 1042.43 194.101 1033.09 191.317L973.207 173.458C963.958 170.7 960.95 159.152 967.766 152.571Z" stroke="#EDC00D" stroke-width="5"/>
<path d="M1158.64 224.564L1150.99 185.205C1149.16 175.818 1158.38 167.849 1167.54 170.895L1206.3 183.787C1215.45 186.834 1217.64 198.597 1210.22 204.91L1179.12 231.377C1171.77 237.632 1160.44 233.865 1158.64 224.564Z" stroke="#EDC00D" stroke-opacity="0.6" stroke-width="5"/>
</svg>
